<?xml version="1.0" encoding="UTF-8" standalone="no"?> <!-- Created with Vectornator for iOS (http://vectornator.io/) --><!DOCTYPE svg PUBLIC "-//W3C//DTD SVG 1.1//EN" "http://www.w3.org/Graphics/SVG/1.1/DTD/svg11.dtd">
<svg style="fill-rule:evenodd;clip-rule:evenodd;stroke-linecap:round;stroke-linejoin:round;" xmlns:vectornator="http://vectornator.io" xmlns:xlink="http://www.w3.org/1999/xlink" xmlns="http://www.w3.org/2000/svg" xml:space="preserve" version="1.1" viewBox="0 0 800 300">
<metadata>
<vectornator:setting key="DynamicGuides" value="1"/>
<vectornator:setting key="Units" value="Points"/>
<vectornator:setting key="GuidesVisible" value="1"/>
<vectornator:setting key="RulersVisible" value="1"/>
<vectornator:setting key="SnapToGuides" value="1"/>
<vectornator:setting key="GridSpacing" value="36"/>
</metadata>
<defs>
<radialGradient cx="360.119" r="605.654" id="RadialGradient" gradientUnits="userSpaceOnUse" gradientTransform="matrix(0.995395 -0.0958621 0.0958621 0.995395 -206.474 12.8942)" cy="262.958">
<stop stop-color="#780202" offset="0.00917182"/>
<stop stop-color="#ffaf00" offset="0.991129"/>
</radialGradient>
<radialGradient cx="360.119" r="605.654" id="RadialGradient_2" gradientUnits="userSpaceOnUse" gradientTransform="matrix(0.995395 -0.0958621 0.0958621 0.995395 -206.474 12.8942)" cy="262.958">
<stop stop-color="#780202" offset="0.00917182"/>
<stop stop-color="#ffaf00" offset="0.991129"/>
</radialGradient>
<radialGradient cx="360.119" r="605.654" id="RadialGradient_3" gradientUnits="userSpaceOnUse" gradientTransform="matrix(0.995395 -0.0958621 0.0958621 0.995395 -206.474 12.8942)" cy="262.958">
<stop stop-color="#780202" offset="0.00917182"/>
<stop stop-color="#ffaf00" offset="0.991129"/>
</radialGradient>
<radialGradient cx="360.119" r="605.654" id="RadialGradient_4" gradientUnits="userSpaceOnUse" gradientTransform="matrix(0.995395 -0.0958621 0.0958621 0.995395 -206.474 12.8942)" cy="262.958">
<stop stop-color="#780202" offset="0.00917182"/>
<stop stop-color="#ffaf00" offset="0.991129"/>
</radialGradient>
<radialGradient cx="360.119" r="605.654" id="RadialGradient_5" gradientUnits="userSpaceOnUse" gradientTransform="matrix(0.995395 -0.0958621 0.0958621 0.995395 -206.474 12.8942)" cy="262.958">
<stop stop-color="#780202" offset="0.00917182"/>
<stop stop-color="#ffaf00" offset="0.991129"/>
</radialGradient>
<radialGradient cx="360.119" r="605.654" id="RadialGradient_6" gradientUnits="userSpaceOnUse" gradientTransform="matrix(0.995395 -0.0958621 0.0958621 0.995395 -206.474 12.8942)" cy="262.958">
<stop stop-color="#780202" offset="0.00917182"/>
<stop stop-color="#ffaf00" offset="0.991129"/>
</radialGradient>
<radialGradient cx="360.119" r="605.654" id="RadialGradient_7" gradientUnits="userSpaceOnUse" gradientTransform="matrix(0.995395 -0.0958621 0.0958621 0.995395 -206.474 12.8942)" cy="262.958">
<stop stop-color="#780202" offset="0.00917182"/>
<stop stop-color="#ffaf00" offset="0.991129"/>
</radialGradient>
</defs>
<g id="Layer 1" vectornator:layerName="Layer 1">
<path d="M181.834+182.389C178.596+186.824+174.824+190.47+170.518+193.328C166.212+196.186+161.866+197.826+157.478+198.249C153.242+198.657+149.519+198.061+146.311+196.461C143.103+194.861+140.543+192.855+138.631+190.443L138.177+190.487C137.218+196.382+135.009+202.78+131.55+209.679C128.092+216.578+123.788+223.024+118.639+229.018C113.489+235.011+107.686+240.151+101.227+244.438C94.7679+248.725+87.983+251.211+80.8719+251.895C74.366+252.522+69.2666+251.104+65.5737+247.642C61.8808+244.18+59.7284+239.272+59.1164+232.918C58.7959+229.589+59.2564+225.651+60.4982+221.103C61.7399+216.555+63.621+211.907+66.1415+207.159C68.6621+202.412+71.7194+197.689+75.3136+192.991C78.9077+188.293+82.8861+184.016+87.2485+180.16C91.611+176.304+96.3038+173.103+101.327+170.558C106.35+168.013+111.509+166.485+116.805+165.975C123.008+165.378+127.987+166.731+131.741+170.034C135.495+173.337+137.8+177.849+138.656+183.569C139.294+187.02+141.23+190.079+144.464+192.745C147.699+195.411+151.888+196.496+157.032+196.001C161.571+195.564+165.736+194.018+169.527+191.362C173.318+188.706+176.779+185.395+179.909+181.429L181.834+182.389ZM71.8963+237.184C72.2751+241.118+73.3303+244.147+75.0619+246.27C76.7935+248.394+79.1722+249.31+82.1982+249.019C86.2833+248.626+90.225+247.139+94.0231+244.559C97.8213+241.979+101.403+238.733+104.767+234.82C108.131+230.908+111.184+226.529+113.924+221.684C116.664+216.839+118.974+211.883+120.853+206.815C122.731+201.748+124.129+196.841+125.047+192.095C125.964+187.349+126.241+183.085+125.876+179.303C125.57+176.126+124.517+173.516+122.717+171.476C120.917+169.435+118.353+168.575+115.025+168.895C111.847+169.201+108.541+170.55+105.107+172.943C101.672+175.335+98.262+178.374+94.8757+182.059C91.4894+185.745+88.3433+189.942+85.4372+194.65C82.5312+199.358+79.9802+204.185+77.7841+209.13C75.5881+214.076+73.9594+218.966+72.8981+223.802C71.8368+228.638+71.5029+233.099+71.8963+237.184Z" opacity="1" fill="url(#RadialGradient)"/>
<path d="M203.902+159.42C201.391+163.479+198.219+168.595+194.385+174.767C190.551+180.939+186.856+187.364+183.3+194.044C179.744+200.724+176.751+207.311+174.323+213.806C171.894+220.3+170.899+225.817+171.336+230.356C171.598+233.08+172.656+235.345+174.51+237.151C176.363+238.958+179.257+239.672+183.191+239.293C189.092+238.725+194.918+235.797+200.669+230.509C206.421+225.221+211.545+218.963+216.041+211.735C220.536+204.507+224.102+197.139+226.739+189.632C229.375+182.124+230.453+175.874+229.972+170.881C229.856+169.671+229.429+168.414+228.693+167.11C227.957+165.807+227.508+164.323+227.348+162.659C227.173+160.843+227.542+159.128+228.456+157.513C229.369+155.898+230.809+154.996+232.776+154.806C234.894+154.602+236.864+155.634+238.686+157.902C240.508+160.17+241.703+164.254+242.271+170.155C242.432+171.819+242.468+173.381+242.379+174.84C242.29+176.299+242.236+177.717+242.216+179.093C244.099+181.203+246.698+182.823+250.014+183.954C253.33+185.086+256.5+185.506+259.526+185.214C263.46+184.835+267.56+183.41+271.827+180.937C276.094+178.465+279.439+174.745+281.862+169.778L283.786+170.738C282.946+173.109+281.667+175.294+279.951+177.292C278.235+179.289+276.304+181.041+274.158+182.545C272.012+184.05+269.686+185.266+267.18+186.195C264.673+187.124+262.134+187.712+259.562+187.959C256.233+188.28+252.987+187.867+249.822+186.721C246.658+185.575+243.929+184.197+241.636+182.585C240.389+188.661+237.76+195.06+233.75+201.783C229.74+208.507+224.961+214.77+219.411+220.572C213.862+226.375+207.805+231.272+201.242+235.264C194.678+239.255+188.068+241.572+181.411+242.213C175.056+242.825+170.035+241.82+166.346+239.197C162.658+236.575+160.486+231.859+159.83+225.051C159.393+220.512+160.315+215.422+162.597+209.781C164.879+204.14+167.645+198.377+170.896+192.49C174.146+186.603+177.491+180.898+180.929+175.375C184.368+169.852+187.108+165.007+189.15+160.84L203.902+159.42Z" opacity="1" fill="url(#RadialGradient_2)"/>
<path d="M321.026+155.47C320.822+153.351+320.102+151.817+318.865+150.868C317.628+149.918+316.178+149.523+314.514+149.683C311.336+149.989+308.014+151.569+304.548+154.422C301.082+157.276+297.711+160.731+294.437+164.787C291.163+168.844+288.255+173.133+285.712+177.653C283.17+182.174+281.302+186.171+280.11+189.645C283.38+188.72+287.428+187.146+292.253+184.925C297.079+182.705+301.675+180.086+306.042+177.07C310.409+174.053+314.093+170.682+317.093+166.958C320.094+163.233+321.405+159.403+321.026+155.47ZM358.951+163.957C357.045+167.958+354.609+172.392+351.642+177.259C348.675+182.126+345.25+186.999+341.368+191.877C337.486+196.756+333.287+201.512+328.77+206.147C324.253+210.781+319.504+214.98+314.522+218.743C309.54+222.505+304.454+225.591+299.265+228C294.076+230.408+288.909+231.86+283.765+232.356C277.411+232.968+272.337+231.815+268.543+228.897C264.75+225.979+262.562+221.494+261.979+215.442C261.338+208.785+262.669+201.594+265.972+193.87C269.275+186.146+273.729+178.883+279.335+172.083C284.941+165.282+291.254+159.482+298.274+154.683C305.294+149.884+312.209+147.157+319.017+146.501C322.8+146.137+325.827+146.647+328.098+148.031C330.369+149.416+331.65+151.621+331.942+154.647C332.291+158.279+330.663+161.986+327.057+165.769C323.451+169.552+318.946+173.116+313.542+176.462C308.138+179.807+302.289+182.89+295.994+185.711C289.699+188.531+284.107+190.711+279.216+192.251C277.843+195.437+276.809+198.973+276.114+202.857C275.419+206.742+275.254+210.575+275.618+214.358C275.793+216.173+276.154+217.933+276.699+219.636C277.245+221.34+278.003+222.87+278.974+224.227C279.944+225.585+281.192+226.648+282.717+227.417C284.242+228.187+286.063+228.469+288.181+228.265C293.174+227.785+298.881+225.593+305.3+221.692C311.72+217.791+318.147+212.782+324.582+206.664C331.018+200.547+337.077+193.703+342.762+186.131C348.446+178.559+353.201+170.848+357.026+162.997L358.951+163.957Z" opacity="1" fill="url(#RadialGradient_3)"/>
<path d="M378.199+142.634L353.42+187.395L353.918+187.805C355.788+185.029+358.186+181.783+361.111+178.065C364.036+174.348+367.256+170.525+370.772+166.598C374.288+162.671+377.996+158.763+381.898+154.876C385.799+150.988+389.661+147.485+393.484+144.369C394.095+142.783+394.81+141.492+395.631+140.497C396.451+139.502+398.223+138.873+400.946+138.611C402.611+138.45+404.089+138.346+405.383+138.298C406.676+138.25+408.011+138.236+409.387+138.256C407.063+141.076+404.869+144.456+402.805+148.396C400.741+152.336+399.92+156.499+400.343+160.887C400.678+164.367+401.81+167.007+403.74+168.806C405.669+170.605+407.92+171.381+410.492+171.133C412.761+170.915+414.949+170.246+417.056+169.127C419.162+168.008+421.133+166.673+422.969+165.122C424.805+163.57+426.558+161.951+428.228+160.263C429.897+158.575+431.355+157.061+432.6+155.719L434.049+156.496C432.682+158.154+431.099+159.948+429.299+161.878C427.5+163.807+425.538+165.638+423.415+167.369C421.291+169.101+418.99+170.582+416.513+171.813C414.035+173.044+411.435+173.791+408.712+174.053C403.87+174.52+399.832+173.42+396.598+170.754C393.363+168.087+391.491+164.107+390.981+158.811C390.631+155.18+391.15+151.847+392.537+148.812L392.04+148.402C386.244+153.235+379.971+159.451+373.221+167.049C366.47+174.648+359.386+183.538+351.968+193.72C349.262+197.34+346.545+202.03+343.817+207.79C341.088+213.55+338.791+219.421+336.924+225.404L322.172+226.824C329.089+213.026+336.013+199.303+342.945+185.655C349.877+172.008+357.013+158.112+364.355+143.967L378.199+142.634Z" opacity="1" fill="url(#RadialGradient_4)"/>
<path d="M508.685+151.369C505.745+157.303+501.747+163.757+496.693+170.734C491.638+177.711+486.052+184.319+479.934+190.558C472.419+198.153+464.777+204.425+457.008+209.372C449.238+214.32+441.42+217.173+433.552+217.93C427.954+218.469+423.122+217.446+419.055+214.86C414.988+212.274+412.678+208.106+412.125+202.357C411.425+195.094+412.792+187.48+416.224+179.515C419.656+171.549+424.209+164.124+429.883+157.24C435.558+150.357+441.95+144.587+449.061+139.932C456.171+135.277+463.055+132.629+469.712+131.988C474.1+131.566+477.997+131.992+481.403+133.267C484.809+134.543+486.701+137.147+487.08+141.081C487.255+142.897+486.909+144.457+486.042+145.762C485.175+147.067+484.059+148.167+482.695+149.062C481.33+149.957+479.796+150.678+478.093+151.223C476.389+151.769+474.864+152.183+473.517+152.466C473.976+150.894+474.356+149.293+474.657+147.66C474.958+146.028+475.028+144.38+474.868+142.715C474.329+137.117+471.412+134.573+466.116+135.083C462.182+135.462+457.716+137.839+452.716+142.214C447.717+146.59+443.118+151.957+438.92+158.317C434.723+164.677+431.302+171.573+428.658+179.004C426.014+186.436+425.013+193.48+425.654+200.137C426.048+204.223+427.328+207.611+429.496+210.304C431.664+212.997+434.715+214.153+438.649+213.775C443.945+213.265+449.867+210.938+456.416+206.795C462.965+202.652+469.245+197.696+475.255+191.925C481.554+185.974+487.511+179.254+493.127+171.765C498.743+164.276+503.356+157.074+506.966+150.161L508.685+151.369Z" opacity="1" fill="url(#RadialGradient_5)"/>
<path d="M572.579+44.2028C562.066+65.0667+551.521+85.5901+540.943+105.773C530.365+125.956+519.308+145.918+507.771+165.659L508.269+166.069C511.78+161.302+515.25+156.502+518.678+151.667C522.106+146.832+525.73+142.436+529.548+138.48C533.366+134.524+537.398+131.196+541.643+128.497C545.887+125.797+550.431+124.214+555.272+123.748C560.265+123.267+563.975+124.132+566.402+126.341C568.829+128.551+570.21+131.395+570.545+134.875C570.895+138.507+570.108+141.827+568.183+144.838C566.259+147.848+563.769+150.531+560.713+152.887C557.656+155.243+554.257+157.212+550.516+158.794C546.774+160.376+543.344+161.622+540.225+162.533L540.269+162.987C542.172+163.72+543.886+165.273+545.413+167.646C546.939+170.018+547.834+172.566+548.096+175.289C548.271+177.105+548.113+179.029+547.621+181.062C547.13+183.094+546.532+185.213+545.828+187.419C545.125+189.624+544.531+191.781+544.046+193.889C543.562+195.997+543.422+198.111+543.626+200.229C543.903+203.104+545.252+204.424+547.673+204.191C551.758+203.798+556.727+201.487+562.581+197.258C568.434+193.03+574.506+187.1+580.795+179.47C585.171+174.162+589.571+168.318+593.995+161.936C598.42+155.554+603.106+147.926+608.054+139.051L610.228+140.216C607.747+144.578+604.087+150.58+599.25+158.223C594.412+165.866+588.643+173.751+581.944+181.879C575.517+189.675+569.302+195.695+563.297+199.938C557.292+204.181+551.642+206.558+546.346+207.068C541.807+207.505+538.195+206.86+535.509+205.134C532.823+203.407+531.283+200.501+530.89+196.416C530.686+194.298+530.986+191.864+531.79+189.114C532.594+186.365+533.481+183.683+534.451+181.07C535.421+178.457+536.33+176.003+537.178+173.707C538.026+171.411+538.384+169.582+538.253+168.221C537.976+165.346+536.552+164.032+533.98+164.28C532.467+164.426+530.718+164.9+528.734+165.701C526.749+166.503+524.471+167.028+521.899+167.276C519.63+167.494+518.429+166.923+518.298+165.561C518.167+164.199+519.236+163.409+521.506+163.191C522.414+163.103+523.442+163.081+524.591+163.123C525.741+163.165+527.148+163.106+528.812+162.945C533.351+162.508+537.498+161.574+541.255+160.144C545.011+158.713+548.228+156.838+550.906+154.518C553.584+152.199+555.579+149.526+556.891+146.498C558.202+143.47+558.683+140.141+558.334+136.509C558.028+133.332+557.045+131.06+555.387+129.693C553.728+128.325+551.839+127.744+549.721+127.948C546.847+128.225+543.631+129.718+540.074+132.427C536.518+135.137+532.776+138.704+528.85+143.128C524.924+147.553+520.981+152.59+517.021+158.24C513.06+163.89+509.272+169.752+505.658+175.826C502.044+181.901+498.694+187.95+495.609+193.973C492.525+199.996+489.937+205.629+487.845+210.869L472.867+212.312C487.14+184.519+501.394+156.92+515.628+129.513C529.863+102.106+544.178+74.3483+558.573+46.2388L572.579+44.2028Z" opacity="1" fill="url(#RadialGradient_6)"/>
<path d="M725.77+29.4497C720.773+39.3985+715.297+49.928+709.342+61.0379C703.388+72.1479+697.426+83.1822+691.457+94.1409C685.488+105.1+679.751+115.692+674.246+125.919C668.741+136.146+663.878+145.509+659.658+154.009C655.437+162.509+652.132+169.813+649.743+175.922C647.353+182.032+646.29+186.448+646.552+189.171C646.712+190.836+647.256+192.119+648.183+193.023C649.11+193.926+650.405+194.297+652.07+194.137C655.852+193.773+660.019+191.845+664.569+188.352C669.119+184.86+674.485+179.533+680.667+172.372C686.014+166.054+691.148+159.108+696.068+151.533C700.989+143.959+705.164+136.57+708.593+129.368L710.496+130.101C709.368+132.653+707.863+135.661+705.982+139.126C704.102+142.59+702.005+146.189+699.693+149.924C697.38+153.659+694.882+157.45+692.198+161.297C689.515+165.144+686.737+168.809+683.866+172.293C678.411+179.079+672.927+184.761+667.412+189.338C661.898+193.916+656.644+196.445+651.651+196.926C646.809+197.392+643.118+196.717+640.576+194.901C638.034+193.084+636.61+190.587+636.304+187.41C636.027+184.535+636.363+181.677+637.311+178.838C638.259+175.998+639.236+173.46+640.243+171.225L639.767+171.042C637.609+173.999+635.203+177.17+632.552+180.556C629.9+183.941+627.041+187.156+623.975+190.2C620.909+193.244+617.606+195.815+614.066+197.912C610.527+200.009+606.791+201.246+602.857+201.625C597.41+202.15+593.051+200.89+589.78+197.845C586.509+194.801+584.655+191.009+584.218+186.47C583.606+180.116+585.13+172.945+588.789+164.957C592.448+156.969+597.255+149.406+603.21+142.266C609.165+135.126+615.714+128.998+622.856+123.882C629.999+118.766+636.823+115.894+643.329+115.268C648.17+114.802+652.174+115.943+655.34+118.692C658.507+121.441+660.24+125.168+660.54+129.873L661.221+129.808L710.791+30.8922L725.77+29.4497ZM654.207+130.712C653.858+127.081+652.947+123.962+651.474+121.355C650.001+118.748+647.071+117.656+642.683+118.079C639.657+118.37+636.393+119.753+632.89+122.229C629.387+124.704+625.912+127.863+622.465+131.708C619.017+135.552+615.731+139.877+612.605+144.683C609.479+149.488+606.777+154.33+604.498+159.207C602.219+164.084+600.459+168.796+599.217+173.344C597.975+177.892+597.522+181.906+597.857+185.386C598.163+188.563+599.023+191.153+600.438+193.154C601.852+195.156+604.148+196.004+607.325+195.698C610.049+195.435+613.086+194.074+616.438+191.613C619.789+189.153+623.268+186.031+626.874+182.248C630.48+178.465+633.963+174.197+637.323+169.445C640.683+164.693+643.664+159.978+646.268+155.298C648.871+150.619+650.918+146.108+652.409+141.765C653.899+137.423+654.499+133.738+654.207+130.712Z" opacity="1" fill="url(#RadialGradient_7)"/>
</g>
</svg>
